<svg width="97" height="104" viewBox="0 0 97 104" fill="none" xmlns="http://www.w3.org/2000/svg">
<path d="M31.6356 84L41.7038 36.2223L31.8187 37.7783L34.0154 27.4356L56.7144 24.1406L43.992 84H31.6356Z" fill="#ECE9E4" style="fill:#ECE9E4;fill:color(display-p3 0.9255 0.9137 0.8941);fill-opacity:1;"/>
<path d="M61.3355 48L62.0518 44.4185C63.2934 42.6357 64.7419 41.0439 66.3974 39.6431C68.0528 38.2423 69.8357 36.8256 71.7458 35.393C73.4968 34.0559 74.8816 32.9894 75.9004 32.1935C76.9191 31.3976 77.6832 30.6335 78.1926 29.9013C78.7338 29.1691 79.1158 28.2936 79.3387 27.2748C79.5934 25.9696 79.4342 24.9986 78.8611 24.3618C78.3199 23.6933 77.0624 23.359 75.0886 23.359C73.7833 23.359 72.4621 23.5182 71.125 23.8366C69.7879 24.1231 68.4985 24.4892 67.2569 24.9349L68.6896 18.2971C70.0267 17.8514 71.5548 17.4853 73.2739 17.1988C75.0249 16.9122 76.7281 16.769 78.3836 16.769C80.6758 16.769 82.5541 17.2147 84.0185 18.1061C85.483 18.9657 86.4858 20.1754 87.027 21.7354C87.6001 23.2953 87.6478 25.0941 87.1703 27.1316C86.7564 28.9781 85.9765 30.5858 84.8304 31.9547C83.7161 33.2918 82.1402 34.7085 80.1027 36.2048C78.6064 37.2872 77.2534 38.2901 76.0437 39.2133C74.8657 40.1047 73.8151 41.0598 72.8919 42.0785H84.3051L83.0635 48H61.3355Z" fill="#ECE9E4" style="fill:#ECE9E4;fill:color(display-p3 0.9255 0.9137 0.8941);fill-opacity:1;"/>
</svg>
