<svg width="24" height="24" viewBox="0 0 24 24" fill="none" xmlns="http://www.w3.org/2000/svg">
<path d="M6.37738 20.625C5.24846 20.625 4.33325 19.6859 4.33325 18.5263V10.091C4.33325 9.45373 4.61596 8.84998 5.09992 8.45227L10.7225 3.83502C11.0817 3.53754 11.5335 3.37476 11.9999 3.37476C12.4663 3.37476 12.9181 3.53754 13.2774 3.83502L18.899 8.45227C19.3839 8.84998 19.6666 9.45373 19.6666 10.091V18.5263C19.6666 19.6859 18.7514 20.625 17.6225 20.625H6.37738Z" stroke="currentColor" stroke-linecap="round" stroke-linejoin="round"/>
<path d="M9.60425 20.625V15.3542C9.60425 14.8458 9.80618 14.3583 10.1656 13.9989C10.5251 13.6394 11.0126 13.4375 11.5209 13.4375H12.4792C12.9876 13.4375 13.4751 13.6394 13.8345 13.9989C14.194 14.3583 14.3959 14.8458 14.3959 15.3542V20.625" stroke="currentColor" stroke-linecap="round" stroke-linejoin="round"/>
</svg>
